<svg width="130" height="132" viewBox="0 0 130 132" fill="none" xmlns="http://www.w3.org/2000/svg">
    <path fill-rule="evenodd" clip-rule="evenodd" d="M76.9564 0C109.89 0 129.077 33.363 129.077 66.2964C129.077 99.0482 109.708 132 76.9564 132C37.7127 132 0.921875 105.54 0.921875 66.2964C0.921875 26.9009 37.5609 0 76.9564 0Z" fill="white"/>
    <path d="M44.7889 31L49.5885 39.3967C52.4592 44.4185 57.2517 48.0508 62.8625 49.4509L72.6592 51.8983V60.6406C72.6592 62.4004 71.6647 64.0085 70.0919 64.7949L57.4422 71.1215C55.8975 71.8938 54.0814 70.7688 54.0814 69.0444V58.8668L52.2934 58.1509C46.002 55.6329 40.9697 50.724 38.3001 44.4961L35.5 37.9649" stroke="black" stroke-width="1.9" stroke-miterlimit="10" stroke-linecap="round" stroke-linejoin="round"/>
    <path d="M35.5 54.2227L36.5932 56.9557C38.8502 62.5947 43.4453 66.9711 49.183 68.953L55.1816 71.0231" stroke="black" stroke-width="1.9" stroke-miterlimit="10" stroke-linecap="round" stroke-linejoin="round"/>
    <path d="M62.459 59.519C65.0757 60.7639 67.9498 61.769 71.0426 62.3191" stroke="black" stroke-width="1.9" stroke-miterlimit="10" stroke-linecap="round" stroke-linejoin="round"/>
    <path d="M48.2422 48.6655C48.2422 48.6655 50.2876 52.7986 55.186 55.2566" stroke="black" stroke-width="1.9" stroke-miterlimit="10" stroke-linecap="round" stroke-linejoin="round"/>
    <path d="M79.5454 73.738C81.7742 73.1067 83.0685 70.7863 82.4372 68.5575C81.806 66.3287 79.4855 65.0345 77.2567 65.6657C75.0279 66.297 73.7337 68.6175 74.365 70.8462C74.9962 73.075 77.3167 74.3692 79.5454 73.738Z" stroke="black" stroke-width="1.9" stroke-miterlimit="10" stroke-linecap="round" stroke-linejoin="round"/>
    <path d="M79.2365 87.9179L78.9438 86.7858C78.0622 84.5817 76.574 82.6739 74.6626 81.2668L67.5496 76.0863C66.7102 75.4974 66.5022 74.3442 67.0664 73.4837C67.6765 72.6021 68.872 72.3729 69.7501 72.9794L75.248 76.841C77.3463 78.2869 80.0723 78.4985 82.361 77.3664C84.0185 76.5271 85.2775 75.0812 85.8629 73.318L87.3299 68.9133C87.7073 67.7601 89.0932 67.2982 90.0983 67.9682C90.6237 68.3032 90.9164 68.8922 90.9164 69.4987C90.9164 69.668 90.8741 69.8549 90.8318 70.0242L88.0846 79.2143L91.4842 87.7733L91.5054 87.7944" stroke="black" stroke-width="1.9" stroke-miterlimit="10" stroke-linecap="round" stroke-linejoin="round"/>
    <path d="M83.227 41.4059C84.7963 41.7621 85.7802 43.3243 85.424 44.8972C85.0679 46.4665 81.2874 49.9401 81.2874 49.9401C81.2874 49.9401 79.3795 45.1758 79.7357 43.6064C80.0954 42.0336 81.6577 41.0497 83.227 41.4059Z" stroke="black" stroke-width="1.9" stroke-miterlimit="10" stroke-linecap="round" stroke-linejoin="round"/>
    <path d="M96.0339 53.3507C97.0778 54.5779 96.9261 56.4188 95.6989 57.4627C94.4717 58.5065 89.3652 59.0143 89.3652 59.0143C89.3652 59.0143 90.6947 54.0595 91.922 53.0157C93.1527 51.9718 94.9901 52.1235 96.0339 53.3507Z" stroke="black" stroke-width="1.9" stroke-miterlimit="10" stroke-linecap="round" stroke-linejoin="round"/>
    <path d="M37.3223 94.1512C39.896 92.5134 43.3346 92.5134 45.9082 94.1512C48.4819 95.789 51.9205 95.789 54.4942 94.1512C57.0679 92.5134 60.5065 92.5134 63.0802 94.1512C65.6539 95.789 69.0925 95.789 71.6662 94.1512C74.2398 92.5134 77.6784 92.5134 80.2521 94.1512C82.8258 95.789 86.2644 95.789 88.8381 94.1512C91.4118 92.5134 94.8504 92.5134 97.4241 94.1512" stroke="black" stroke-width="1.9" stroke-linecap="round" stroke-linejoin="round"/>
</svg>
