<svg width="133" height="133" viewBox="0 0 133 133" fill="none" xmlns="http://www.w3.org/2000/svg">
    <path fill-rule="evenodd" clip-rule="evenodd" d="M132.5 58.5116C132.5 94.5273 114.131 132.993 78.1154 132.993C36.106 132.993 0.499996 100.521 0.499997 58.5116C0.499999 20.5528 40.1566 -4.03646e-06 78.1154 -2.37723e-06C109.312 -1.0136e-06 132.5 27.3154 132.5 58.5116Z" fill="white"/>
    <path d="M100.407 90.2754C91.6985 86.9984 80.3356 85.4226 69.0064 85.4226C68.242 85.4226 67.4773 85.43 66.7133 85.4448M37.5918 90.3204C41.6995 88.7746 46.4011 87.5973 51.4115 86.7848M51.4115 86.7848L56.5932 79.9252M51.4115 86.7848C56.3061 85.9912 61.4953 85.5456 66.7133 85.4448M56.5932 79.9252L46.155 68.3332M56.5932 79.9252L65.4107 79.9085M65.4107 79.9085L59.1303 53.3445M65.4107 79.9085L83.8724 79.895L89.1201 87.1949M65.4107 79.9085L66.7133 85.4448M59.1303 53.3445L41.0212 57.6191C40.1321 53.7779 41.4661 49.1081 43.849 46.0434C45.9182 43.3923 48.4621 41.5339 52.1438 39.8826C53.585 39.2362 55.9606 38.5446 55.9606 38.5446M59.1303 53.3445L66.7894 51.4714M51.4403 55.1048C50.6859 44.6985 55.9606 38.5446 55.9606 38.5446M55.9606 38.5446C55.9606 38.5446 58.3531 38.1723 59.8985 38.1485C64.2434 38.0814 67.7149 38.8808 70.7449 40.6324L71.5311 41.0869M55.9606 38.5446C55.9606 38.5446 64.8925 44.4279 66.7894 51.4714M66.7894 51.4714L71.6886 50.3665M71.6886 50.3665C73.4106 52.9594 76.6993 55.2262 80.0308 55.2262C85.3441 55.2262 89.6528 50.9098 89.6528 45.6131C89.6528 40.3173 85.3314 36 80.0308 36C76.6867 36 73.7538 37.7241 72.0316 40.3296L71.5311 41.0869M71.6886 50.3665L77.3049 48.9936C77.3049 46.025 74.7973 43.4896 72.2861 41.6238L71.5311 41.0869" stroke="black" stroke-width="1.8" stroke-linecap="round" stroke-linejoin="round"/>
    <path d="M54.2031 71.0723L58.5987 76.347" stroke="black" stroke-width="1.8" stroke-linecap="round"/>
</svg>
