<svg width="138" height="132" viewBox="0 0 138 132" fill="none" xmlns="http://www.w3.org/2000/svg">
    <path fill-rule="evenodd" clip-rule="evenodd" d="M71.3335 0C104.105 0 137.436 18.9239 137.436 51.6953C137.436 92.3143 111.952 132 71.3335 132C29.5326 132 0.564453 93.4962 0.564453 51.6953C0.564453 17.47 37.1082 0 71.3335 0Z" fill="white"/>
    <path d="M88.7834 51.2438L94.0589 48.1544M57.5426 42.8694L54.4786 37.5605M49.1895 51.2369L43.8853 48.192M80.4062 42.8659L83.4481 37.5717L83.8817 36.8449M107 71.7012C105.538 70.2403 103.615 69.4489 101.557 69.4489C99.5116 69.4489 97.552 70.2638 96.1112 71.704C94.6085 73.2061 92.6707 74 90.698 74C88.7266 74 86.8105 73.2274 85.3081 71.7271L84.2153 70.8178M31 71.7351C32.4395 70.3022 34.3635 69.4948 36.4033 69.4948C38.4407 69.4948 40.3736 70.2848 41.8211 71.7494C44.8087 74.7359 49.7184 74.7333 52.706 71.7469C53.0226 71.4304 53.3628 71.1443 53.7226 70.8904M53.7226 70.8904L53.3184 70.0223C52.2469 67.7271 51.6809 65.2024 51.6809 62.6652C51.6809 53.1579 59.4661 45.3725 68.9802 45.3725C78.5239 45.3725 86.2794 53.125 86.2794 62.6652C86.2794 65.1926 85.6851 67.7006 84.6106 69.987L84.2153 70.8178M53.7226 70.8904C55.0002 69.9891 56.5252 69.4948 58.1212 69.4948C60.1586 69.4948 62.0915 70.2848 63.539 71.7494C66.5266 74.7359 71.4363 74.7333 74.4239 71.7469C75.8647 70.3067 77.7937 69.4948 79.8391 69.4948C81.4019 69.4948 82.9333 69.9464 84.2153 70.8178M69.002 39.784L68.9568 33.6924M40.0128 62.6717H46.12M91.8483 62.671L97.9648 62.6258" stroke="black" stroke-width="2" stroke-linecap="round" stroke-linejoin="round"/>
    <path d="M95.753 80.2336C94.2503 81.7357 92.3125 82.5296 90.3399 82.5296C88.3685 82.5296 86.4523 81.757 84.95 80.2568L83.8571 79.3475C82.5752 78.476 81.0438 78.0244 79.4809 78.0244C77.4355 78.0244 75.5065 78.8363 74.0657 80.2765C71.0781 83.263 66.1684 83.2655 63.1808 80.2791C61.7333 78.8144 59.8004 78.0244 57.763 78.0244C56.1671 78.0244 54.642 78.5187 53.3644 79.4201C53.0046 79.6739 52.6644 79.96 52.3478 80.2765C49.3602 83.263 44.4505 83.2655 41.4629 80.2791" stroke="black" stroke-width="2" stroke-linecap="round" stroke-linejoin="round"/>
    <path d="M53.3652 87.8869C54.6428 86.9855 56.1679 86.4912 57.7639 86.4912C59.8013 86.4912 61.7342 87.2812 63.1816 88.7459C66.1692 91.7323 71.079 91.7298 74.0666 88.7433C75.5073 87.3031 77.4363 86.4912 79.4818 86.4912C81.0446 86.4912 82.576 86.9428 83.8579 87.8143" stroke="black" stroke-width="2" stroke-linecap="round" stroke-linejoin="round"/>
</svg>
