<svg width="132" height="132" viewBox="0 0 132 132" fill="none" xmlns="http://www.w3.org/2000/svg">
    <path fill-rule="evenodd" clip-rule="evenodd" d="M59.7469 0C99.5987 0 131.113 33.0895 131.113 72.9414C131.113 109.117 95.9227 132 59.7469 132C27.1845 132 0.886719 105.504 0.886719 72.9414C0.886719 36.3383 23.1438 0 59.7469 0Z" fill="white"/>
    <path d="M87.6598 50.4027C87.4611 50.1679 87.2383 49.9632 86.9914 49.7886C86.7687 49.5838 86.5278 49.3791 86.305 49.2045C84.1855 47.4162 82.2467 45.664 80.5547 44.0262C78.8988 42.3523 77.3935 40.3893 76.0628 38.1554C75.5811 37.4148 74.8586 37.0054 74.0276 37.0054C73.1244 37.0054 72.3718 37.4509 71.9563 38.2277C70.6497 40.4134 69.1504 42.3643 67.5186 44.0141C65.8266 45.658 63.8818 47.4101 61.7984 49.1744C61.5335 49.3791 61.2866 49.5838 61.0638 49.7946C60.8169 49.9692 60.5941 50.1739 60.3954 50.4087C57.8304 52.7149 56.4997 55.9122 56.4395 59.9525C56.4936 63.0896 57.3728 65.8112 59.0467 68.027L59.4079 68.5087H88.6533L89.0146 68.027C90.6885 65.8112 91.5616 63.0896 91.6218 59.9163C91.5676 55.9182 90.2369 52.7209 87.6658 50.4148L87.6598 50.4027Z" stroke="black" stroke-width="1.8" stroke-miterlimit="10" stroke-linejoin="round"/>
    <path d="M35.1738 91.4018C35.2277 92.4003 35.5401 93.226 36.1271 93.9289L36.1918 93.9958C36.8381 94.6094 37.5975 94.9386 38.5185 94.9999H38.567H44.4054C45.321 94.9386 46.0858 94.6094 46.7321 93.9958L46.7967 93.9289C47.3838 93.226 47.6962 92.4003 47.75 91.3516V62.6611H35.1738V91.4018V91.4018Z" stroke="black" stroke-width="1.8" stroke-miterlimit="10" stroke-linejoin="round"/>
    <path d="M48.3478 45.3154C48.2514 45.1649 48.137 45.0324 48.0166 44.918C47.9142 44.7915 47.7998 44.6651 47.6975 44.5627C46.71 43.4789 45.8008 42.4192 45.0059 41.4196C44.2352 40.408 43.5307 39.2219 42.9105 37.8671C42.5192 37.0843 41.8809 37 41.622 37C41.0319 37 40.5382 37.3492 40.3214 37.8972C39.7072 39.2279 39.0088 40.4141 38.2501 41.4076C37.4492 42.4131 36.54 43.4729 35.5766 44.5326C35.4502 44.6591 35.3358 44.7855 35.2274 44.912C35.1009 45.0264 34.9926 45.1588 34.8962 45.3094C33.6739 46.7364 33.0417 48.6994 33.0176 51.156C33.0417 53.0708 33.4571 54.7327 34.2519 56.0935L34.5109 56.5451H48.7331L48.992 56.0935C49.7808 54.7327 50.1963 53.0708 50.2264 51.1319C50.1963 48.6933 49.5641 46.7364 48.3478 45.3033V45.3154Z" stroke="black" stroke-width="1.8" stroke-miterlimit="10" stroke-linejoin="round"/>
    <path d="M93.3757 76.0152C92.7676 75.389 91.9908 75.0698 91.0575 75.0698H56.9891C56.0618 75.0698 55.2791 75.389 54.6709 76.0152C54.0688 76.6354 53.7617 77.4302 53.7617 78.3755V89.8054C53.7617 90.7507 54.0688 91.5456 54.6709 92.1657C55.2791 92.792 56.0558 93.1111 56.9891 93.1111H61.5232V86.4817C61.6014 85.5484 62.0109 85.1088 62.884 85.0064C63.757 85.1088 64.1665 85.5484 64.2448 86.4275V93.1111H70.6936V87.5474C70.7417 86.024 71.2897 84.8439 72.3675 83.9286L74.0113 82.5016L75.619 83.9467C76.7871 84.8499 77.3531 86.018 77.3531 87.5233V93.1111H83.8019V86.4817C83.8802 85.5484 84.2896 85.1088 85.1627 85.0064C86.0358 85.1088 86.4452 85.5484 86.5295 86.4275V93.1111H91.0636C91.9908 93.1111 92.7736 92.792 93.3818 92.1657C93.9839 91.5456 94.291 90.7507 94.291 89.8054V78.3755C94.291 77.4302 93.9839 76.6354 93.3818 76.0152H93.3757Z" stroke="black" stroke-width="1.8" stroke-miterlimit="10" stroke-linejoin="round"/>
</svg>
