<svg width="133" height="132" viewBox="0 0 133 132" fill="none" xmlns="http://www.w3.org/2000/svg">
    <path fill-rule="evenodd" clip-rule="evenodd" d="M58.3681 0C97.263 0 132.263 27.8809 132.263 66.7757C132.263 105.267 96.8594 132 58.3681 132C24.3776 132 0.736328 100.766 0.736328 66.7757C0.736328 32.3289 23.9213 0 58.3681 0Z" fill="white"/>
    <path fill-rule="evenodd" clip-rule="evenodd" d="M42.4667 59.3357C42.1739 60.0519 41.9109 62.3475 42.6262 62.641C43.3406 62.9326 44.7635 61.1105 45.0568 60.3953C45.3492 59.6805 45.0069 58.864 44.2916 58.5705C43.5755 58.2772 42.7587 58.6197 42.4667 59.3357Z" fill="black"/>
    <path fill-rule="evenodd" clip-rule="evenodd" d="M39.1294 50.5563C38.413 50.2632 37.5965 50.6056 37.3045 51.3215C37.0124 52.0372 36.7487 54.3333 37.464 54.6269C38.1796 54.918 39.601 53.0965 39.8946 52.3812C40.1866 51.6653 39.8446 50.8496 39.1294 50.5563Z" fill="black"/>
    <path fill-rule="evenodd" clip-rule="evenodd" d="M35.8157 61.96C35.5224 62.6761 35.2596 64.9719 35.9759 65.265C36.6895 65.557 38.1121 63.7349 38.4054 63.0198C38.6982 62.3048 38.3557 61.4881 37.6402 61.1949C36.9246 60.9028 36.1089 61.2448 35.8157 61.96Z" fill="black"/>
    <path fill-rule="evenodd" clip-rule="evenodd" d="M51.0646 58.4677C50.7713 59.1838 50.5076 61.48 51.224 61.7731C51.9388 62.0656 53.361 60.2427 53.655 59.5282C53.9458 58.8127 53.6034 57.9962 52.8894 57.7025C52.1734 57.4102 51.3568 57.7526 51.0645 58.4677" fill="black"/>
    <path fill-rule="evenodd" clip-rule="evenodd" d="M44.6692 67.0991C44.3771 67.8148 44.1133 70.1109 44.8293 70.403C45.5442 70.6957 46.9668 68.8736 47.2593 68.1588C47.5512 67.4429 47.2092 66.6272 46.4941 66.3339C45.7788 66.0404 44.9623 66.3827 44.6692 67.0991Z" fill="black"/>
    <path fill-rule="evenodd" clip-rule="evenodd" d="M57.9237 43.6125C57.6615 43.8238 57.5166 44.1465 57.5331 44.4823C57.5509 44.8178 57.7266 45.1254 58.0075 45.3095C58.0387 45.3294 60.7169 47.0993 62.4867 49.4779C62.0052 49.5546 61.3674 49.6033 60.6083 49.589C60.4193 49.5211 60.2142 49.5208 60.0131 49.5653C58.4745 49.4678 56.4776 49.0864 54.0268 48.0844C53.7632 47.9775 53.4738 47.9828 53.2229 48.088C53.0883 48.1444 52.9655 48.229 52.8623 48.3383C52.8296 48.3749 49.8395 51.5214 46.8364 52.6521C46.5054 51.4548 46.1886 49.1437 47.644 46.7965C47.845 46.4718 47.8514 46.0637 47.6666 45.7312C47.4802 45.3983 47.126 45.1914 46.7447 45.192C46.5425 45.1934 42.2885 45.147 38.4819 41.4279C38.4103 41.3249 38.3274 41.2387 38.228 41.1701C38.1168 41.0539 38.0023 40.9469 37.8923 40.8257C39.183 40.4813 41.4414 40.2315 44.3937 41.2942C44.7487 41.4233 45.1464 41.351 45.4317 41.1049C45.7186 40.8603 45.8533 40.4804 45.7818 40.1095C45.7742 40.0695 45.1466 36.7668 44.858 34.4403C46.5798 34.8173 49.6248 36.0142 50.6588 39.7648C50.1605 41.0695 49.8572 42.1227 49.7815 42.3958C49.6261 42.954 49.9533 43.5332 50.5124 43.6883C50.7484 43.7535 50.9883 43.7337 51.1985 43.6455C51.4852 43.5253 51.7157 43.2796 51.8049 42.9573C51.962 42.3925 52.174 41.7353 52.4244 41.0472C53.3794 40.756 57.0502 39.775 60.3815 40.7151C60.0311 41.4166 59.322 42.485 57.9237 43.6126M59.4443 60.081C56.3979 67.5235 43.9401 80.1256 36.6861 77.1578C29.4297 74.1885 29.3783 56.4677 32.4234 49.0248C33.5081 46.3752 35.1844 44.4572 37.4016 43.2996C40.2633 45.9172 43.3079 46.8226 45.1248 47.1327C43.6004 50.9015 45.1621 54.2399 45.2373 54.3974C45.4491 54.8379 45.9364 55.0734 46.4131 54.9667C49.5474 54.2688 52.6848 51.4599 53.8879 50.2881C56.123 51.1369 58.0221 51.5157 59.5784 51.6447C60.6986 54.2647 60.6646 57.0976 59.4442 60.0811M62.1341 39.1023C59.0062 37.8103 55.5405 38.1825 53.4352 38.6236C54.195 37.0349 55.0966 35.6321 55.9907 35.1489C56.502 34.8741 56.6913 34.2368 56.4159 33.7268C56.1418 33.2165 55.5192 33.03 54.9937 33.3006C53.7381 33.9785 52.6781 35.4945 51.844 37.1019C49.8189 33.4079 45.8718 32.2351 43.7165 32.1684C43.4218 32.1589 43.1365 32.274 42.9311 32.4853C42.725 32.697 42.6183 32.9853 42.6358 33.2798C42.7212 34.7031 43.1211 37.1618 43.4092 38.8106C38.7374 37.6991 35.7594 39.3807 35.6228 39.4629C35.3633 39.6152 35.1796 39.8697 35.1208 40.1645C35.0617 40.4581 35.1311 40.7648 35.3127 41.0052C35.5055 41.2582 35.6995 41.498 35.8963 41.731C33.4951 43.1397 31.6722 45.3141 30.4794 48.2301C27.1292 56.4179 27.1168 75.5122 35.8905 79.1018C38.3484 80.1077 41.1669 79.7616 44.0251 78.5631C51.3696 75.4824 58.977 66.77 61.3892 60.8761C62.6837 57.7105 62.8231 54.561 61.8371 51.6661C63.3102 51.5562 64.2167 51.2297 64.5073 51.1078C64.5604 51.0856 64.5935 51.0694 64.606 51.0641C64.8656 50.9383 65.0633 50.7119 65.1504 50.4363C65.2388 50.1612 65.2094 49.8626 65.0693 49.6104C63.7965 47.3002 61.5858 45.3742 60.2566 44.3473C62.3795 42.2636 62.7342 40.4669 62.7703 40.2434C62.851 39.7619 62.5873 39.2882 62.1346 39.1023" fill="black"/>
    <path d="M87.5986 91.3137C92.9719 89.0958 97.1183 84.9401 99.2814 79.6013M87.5986 91.3137C92.9594 89.1008 97.1227 84.9292 99.2814 79.6013M87.5986 91.3137C82.0549 93.6003 76.057 93.438 70.8441 91.3259C66.3303 89.4972 61.3612 84.0931 58.8424 79.663M99.2814 79.6013C101.286 74.6538 100.934 68.0613 99.0795 63.0488M99.0795 63.0488L103.488 61.2286L103.918 62.3644C108.933 75.5127 102.649 90.27 89.5008 95.6947C82.94 98.4013 75.6903 98.4397 69.0518 95.75C62.4164 93.0617 57.2173 88.0102 54.3909 81.5011L58.8424 79.663M99.0795 63.0488L58.8424 79.663M-nan -nanL-nan -nan" stroke="black" stroke-width="2" stroke-linecap="round" stroke-linejoin="round"/>
    <path fill-rule="evenodd" clip-rule="evenodd" d="M82.1844 78.153C81.6054 78.3968 81.8422 80.2629 82.0874 80.8421C82.3326 81.4213 83.0007 81.692 83.5799 81.4468C84.1591 81.2016 84.4296 80.5339 84.1844 79.9547C83.9392 79.3754 82.7638 77.9074 82.1844 78.153Z" fill="black"/>
    <path fill-rule="evenodd" clip-rule="evenodd" d="M75.9988 79.7363C75.3773 79.6427 74.6047 81.3583 74.5118 81.979C74.4185 82.6022 74.8477 83.1814 75.4688 83.2735C76.0904 83.3671 76.6705 82.9384 76.7642 82.3168C76.8568 81.6945 76.6212 79.829 75.9988 79.7363Z" fill="black"/>
    <path fill-rule="evenodd" clip-rule="evenodd" d="M70.8803 78.344C70.4003 77.938 68.8431 78.994 68.4371 79.474C68.0324 79.9543 68.0926 80.6716 68.5737 81.0778C69.0543 81.4826 69.7712 81.4226 70.1778 80.9413C70.5821 80.462 71.3609 78.7489 70.8804 78.344" fill="black"/>
    <path fill-rule="evenodd" clip-rule="evenodd" d="M90.1145 75.375C89.6036 75.0084 87.8336 74.3698 87.4686 74.8803C87.1025 75.3929 88.2781 76.861 88.7896 77.2264C89.3009 77.5931 90.0128 77.4737 90.3778 76.9631C90.7434 76.4518 90.6263 75.7404 90.1145 75.375" fill="black"/>
    <path fill-rule="evenodd" clip-rule="evenodd" d="M92.5439 69.2691C91.9167 69.2262 90.0748 69.6096 90.0319 70.2368C89.9884 70.8638 91.7589 71.4974 92.3871 71.5404C93.014 71.5842 93.5577 71.1108 93.6006 70.4836C93.6446 69.8554 93.1707 69.3129 92.5438 69.2691" fill="black"/>
</svg>
